<?xml version="1.0" standalone="no"?>
<!DOCTYPE svg PUBLIC "-//W3C//DTD SVG 20010904//EN"
 "http://www.w3.org/TR/2001/REC-SVG-20010904/DTD/svg10.dtd">
<svg version="1.0" xmlns="http://www.w3.org/2000/svg"
 width="368.000000pt" height="368.000000pt" viewBox="0 0 368.000000 368.000000"
 preserveAspectRatio="xMidYMid meet">
<metadata>
Created by potrace 1.14, written by Peter Selinger 2001-2017
</metadata>
<g transform="translate(0.000000,368.000000) scale(0.100000,-0.100000)"
fill="#000000" stroke="none">
<path d="M1747 3664 c-1 -1 -34 -5 -73 -8 -632 -58 -1190 -441 -1472 -1012
-86 -172 -147 -366 -168 -529 -3 -22 -9 -65 -14 -95 -11 -72 -5 -346 9 -437
48 -313 161 -591 339 -832 68 -93 97 -125 197 -224 418 -412 1030 -599 1610
-491 22 4 49 7 60 8 11 1 22 4 25 8 4 4 23 9 43 10 20 2 37 6 37 9 0 10 112
39 124 32 6 -3 8 -3 4 2 -8 8 144 77 174 78 9 1 15 3 13 6 -3 2 39 29 93 59
252 142 485 366 642 617 126 203 234 493 256 690 3 28 8 57 10 65 3 8 7 83 9
165 5 232 -19 400 -87 615 -47 149 -146 353 -228 470 -98 139 -267 318 -385
407 -33 25 -59 50 -57 55 1 5 -2 7 -7 4 -5 -3 -19 2 -32 12 -13 10 -43 29 -66
42 -23 13 -39 28 -36 33 3 6 1 7 -4 4 -14 -9 -115 47 -106 58 5 4 3 5 -3 2
-11 -6 -99 26 -146 53 -10 6 -22 10 -27 10 -5 0 -26 8 -47 17 -22 9 -43 17
-49 18 -34 4 -86 18 -90 25 -3 5 -14 6 -25 3 -11 -3 -20 -1 -20 3 0 5 -12 10
-28 11 -27 3 -67 10 -67 13 0 1 -16 3 -35 5 -19 2 -62 6 -95 10 -52 6 -273 13
-278 9z"/>
</g>
</svg>
